<svg width="32" height="33" viewBox="0 0 32 33" fill="none" xmlns="http://www.w3.org/2000/svg">
<path fill-rule="evenodd" clip-rule="evenodd" d="M1.33301 4.12255C1.33301 3.47259 1.5912 2.84925 2.05079 2.38966C2.51038 1.93007 3.13372 1.67188 3.78367 1.67188H28.213C28.5351 1.67135 28.8541 1.73436 29.1519 1.8573C29.4496 1.98024 29.7201 2.16069 29.948 2.38833C30.1759 2.61596 30.3566 2.88631 30.4799 3.18389C30.6032 3.48147 30.6665 3.80044 30.6663 4.12255V28.5519C30.6667 28.874 30.6035 29.1931 30.4804 29.4908C30.3573 29.7886 30.1768 30.0591 29.949 30.287C29.7213 30.5148 29.4509 30.6955 29.1532 30.8188C28.8555 30.942 28.5365 31.0054 28.2143 31.0052H3.78367C3.46174 31.0052 3.14295 30.9418 2.84554 30.8185C2.54812 30.6953 2.2779 30.5147 2.05032 30.287C1.82274 30.0592 1.64225 29.7889 1.51917 29.4914C1.39609 29.194 1.33283 28.8751 1.33301 28.5532V4.12255ZM12.9437 12.8559H16.9157V14.8505C17.489 13.7039 18.9557 12.6719 21.1597 12.6719C25.385 12.6719 26.3863 14.9559 26.3863 19.1465V26.9092H22.1103V20.1012C22.1103 17.7145 21.537 16.3679 20.081 16.3679C18.061 16.3679 17.221 17.8199 17.221 20.1012V26.9092H12.9437V12.8559ZM5.61034 26.7265H9.88767V12.6719H5.61034V26.7252V26.7265ZM10.4997 8.08788C10.5077 8.45411 10.4426 8.81826 10.308 9.15896C10.1734 9.49967 9.97214 9.81006 9.71598 10.0719C9.45982 10.3338 9.15394 10.5418 8.81628 10.6839C8.47862 10.8259 8.11599 10.8991 7.74967 10.8991C7.38336 10.8991 7.02073 10.8259 6.68307 10.6839C6.34541 10.5418 6.03953 10.3338 5.78337 10.0719C5.52721 9.81006 5.32593 9.49967 5.19136 9.15896C5.05678 8.81826 4.99161 8.45411 4.99967 8.08788C5.0155 7.36902 5.31219 6.68493 5.82619 6.18213C6.34019 5.67932 7.03064 5.39777 7.74967 5.39777C8.46871 5.39777 9.15916 5.67932 9.67316 6.18213C10.1872 6.68493 10.4838 7.36902 10.4997 8.08788Z" fill="white"/>
</svg>
