<svg width="32" height="32" viewBox="0 0 32 32" fill="none" xmlns="http://www.w3.org/2000/svg">
<path d="M31.5242 6.58147C30.4108 7.0748 29.2148 7.40813 27.9575 7.5588C29.2548 6.78252 30.2254 5.56076 30.6882 4.12147C29.4693 4.84545 28.1353 5.35506 26.7442 5.62813C25.8087 4.62929 24.5696 3.96724 23.2193 3.74477C21.869 3.5223 20.483 3.75186 19.2765 4.3978C18.07 5.04375 17.1105 6.06995 16.547 7.31707C15.9836 8.56419 15.8476 9.96247 16.1602 11.2948C13.6904 11.1708 11.2743 10.5289 9.06874 9.41067C6.86314 8.29248 4.9173 6.72302 3.35751 4.80413C2.82418 5.72413 2.51751 6.7908 2.51751 7.9268C2.51692 8.94946 2.76876 9.95646 3.25068 10.8584C3.73261 11.7604 4.42973 12.5295 5.28018 13.0975C4.29388 13.0661 3.32934 12.7996 2.46684 12.3201V12.4001C2.46675 13.8345 2.96289 15.2246 3.87109 16.3348C4.77929 17.445 6.04361 18.2067 7.44951 18.4908C6.53456 18.7384 5.57529 18.7749 4.64418 18.5975C5.04084 19.8316 5.81351 20.9108 6.854 21.684C7.8945 22.4572 9.15073 22.8857 10.4468 22.9095C8.24662 24.6367 5.52936 25.5736 2.73218 25.5695C2.23669 25.5696 1.74161 25.5407 1.24951 25.4828C4.08881 27.3084 7.39396 28.2772 10.7695 28.2735C22.1962 28.2735 28.4428 18.8095 28.4428 10.6015C28.4428 10.3348 28.4362 10.0655 28.4242 9.7988C29.6392 8.9201 30.6881 7.832 31.5215 6.58547L31.5242 6.58147Z" fill="white"/>
</svg>
